<svg width="54" height="53" viewBox="0 0 54 53" fill="none" xmlns="http://www.w3.org/2000/svg">
<g clip-path="url(#clip0_0_141)">
<path d="M26.6272 0C23.5908 0 20.6387 0.506076 17.7709 1.51823C17.3492 1.68692 17.0962 2.193 17.2649 2.61473C17.4335 3.03646 17.9397 3.28949 18.3614 3.12081C20.9761 2.19299 23.7595 1.68692 26.6272 1.68692C28.4828 1.68692 30.3385 1.93996 32.1098 2.27734L31.3506 4.55468C31.0976 5.3138 31.1819 6.15727 31.435 6.74769L32.0254 8.01287C32.1941 8.35026 32.7002 8.68764 33.1219 8.43461C33.5436 8.18157 33.7124 7.75984 33.5436 7.33811L32.9532 6.07292C32.7846 5.81988 32.7846 5.4825 32.9532 5.14511L33.7967 2.69907C41.8939 5.22945 48.3042 11.8928 50.3285 20.2431H48.1355C47.6295 20.2431 47.2077 19.99 47.039 19.5683L46.533 18.4718C46.0268 17.4597 45.0147 16.7849 43.9182 16.7849H42.6531C42.2313 16.7849 41.8939 16.5319 41.8096 16.4475L40.1226 14.7606C39.2791 13.9171 38.014 13.6641 36.7488 14.1701C36.7488 14.1701 34.8089 15.0979 34.5558 15.0979H30.4228C29.7481 15.0979 29.1577 14.5075 29.1577 13.8328C29.1577 13.3267 29.4107 12.9049 29.8324 12.7363L31.7724 11.8084C32.1941 11.6398 32.3628 11.1337 32.1941 10.712C32.0254 10.2902 31.5193 10.1215 31.0976 10.2902L29.1577 11.218C28.1455 11.6398 27.4707 12.7363 27.4707 13.8328C27.4707 15.5197 28.736 16.7849 30.4228 16.7849H34.5558C35.0619 16.7849 37.4235 15.6884 37.4235 15.6884C37.761 15.5197 38.4357 15.4354 38.9418 15.9414L40.6287 17.6283C41.1348 18.1344 41.8939 18.4718 42.6531 18.4718H43.9182C44.3399 18.4718 44.846 18.8092 45.0147 19.1465L45.5208 20.2431C45.9425 21.2552 47.039 21.93 48.1355 21.93H50.7503C50.9189 23.0264 51.0876 24.123 51.0876 25.3038H48.3885C47.4608 25.3038 46.7017 24.7977 46.2799 24.4604C46.2799 24.4604 43.8339 22.0143 43.4964 21.8456L39.7009 19.3153C38.9418 18.8092 38.014 18.4718 37.0862 18.4718H30.1698C28.6515 18.4718 27.2177 19.231 26.3742 20.5805L24.1812 24.0386C23.9282 24.4604 24.0126 24.9664 24.4342 25.2195C24.856 25.4725 25.3621 25.3882 25.6151 24.9664L27.8082 21.5083C28.3142 20.6648 29.242 20.1587 30.2541 20.1587H37.1705C37.761 20.1587 38.3513 20.3274 38.7731 20.6648L42.5687 23.1952C42.7374 23.2796 45.099 25.6412 45.099 25.6412C46.0268 26.4847 47.2077 26.9907 48.3885 26.9907H51.0876C50.9189 32.0515 49.232 36.7749 46.1955 40.8235C45.9425 41.1609 46.0268 41.7513 46.3642 42.0044C46.786 42.3417 47.3763 42.0887 47.5451 41.8357C51.0033 37.281 52.7745 31.8828 52.7745 26.1473C52.7745 11.7241 41.0504 0 26.6272 0ZM6.3842 23.3639L8.5772 20.0743C8.5772 19.99 9.42067 19.231 9.42067 19.231C10.1798 18.5561 10.6015 17.544 10.6015 16.4475C10.6015 16.4475 10.2641 15.0136 11.2763 14.0858L12.5415 12.8206C13.4693 11.8085 13.8066 10.4589 13.4693 9.19372L12.7101 6.07292C13.3849 5.56685 14.1441 5.14511 14.9031 4.72338C15.3249 4.47034 15.4936 3.96426 15.2406 3.54253C14.9875 3.12081 14.4814 2.95211 14.0597 3.20516C5.70944 7.75984 0.47998 16.5319 0.47998 26.1473C0.47998 31.1237 1.91387 35.9314 4.52859 40.1487C4.69729 40.4018 4.95032 40.5704 5.20336 40.5704C5.37206 40.5704 5.54074 40.5704 5.62509 40.4018C6.04683 40.1487 6.13116 39.6426 5.87813 39.2209C3.51644 35.341 2.1669 30.7863 2.1669 26.1473C2.1669 18.6405 5.62509 11.7241 11.2763 7.08507L11.8667 9.53111C12.0354 10.2058 11.7823 11.0493 11.3606 11.6398L10.0954 12.9049C8.49285 14.0014 8.91459 16.4475 8.91459 16.4475C8.91459 17.0379 8.66155 17.544 8.23982 17.9657C8.23982 17.9657 7.22767 19.0622 7.22767 19.1465L5.03466 22.5204C4.27556 23.7012 4.44424 25.7255 5.03466 26.9907C5.20336 27.3282 5.62509 27.6655 6.13117 27.3282C6.5529 27.0751 6.72159 26.6533 6.46855 26.2317C6.13117 25.3882 6.04683 23.9542 6.3842 23.3639Z" fill="black"/>
<path d="M40.0383 32.3046C39.3635 31.1236 38.014 30.3646 36.6645 30.3646H30.8446V29.6055C30.8446 28.1715 29.6637 26.9907 28.2298 26.9907H9.84239C8.40851 26.9907 7.22766 28.1715 7.22766 29.6055V46.2216C7.22766 47.6555 8.40851 48.8363 9.84239 48.8363H10.6858C11.1076 50.7763 12.7945 52.2102 14.8188 52.2102C16.8431 52.2102 18.53 50.7763 18.9518 48.8363H32.6158C33.0376 50.7763 34.7245 52.2102 36.7488 52.2102C37.2549 52.2102 37.5922 51.8729 37.5922 51.3667C37.5922 50.8606 37.2549 50.5233 36.7488 50.5233C35.3149 50.5233 34.2184 49.4268 34.2184 47.9929C34.2184 46.559 35.3149 45.4625 36.7488 45.4625C38.1827 45.4625 39.2791 46.559 39.2791 47.9929C39.2791 48.6676 39.0261 49.3424 38.52 49.7641C38.1827 50.1016 38.1827 50.6076 38.52 50.945C38.8575 51.2824 39.3635 51.2824 39.7009 50.945C40.2913 50.3546 40.7131 49.5954 40.8818 48.8363H41.8939C43.2434 48.8363 44.3399 47.7398 44.3399 46.3903C44.3399 45.8842 44.0026 45.5468 43.4964 45.5468C42.9904 45.5468 42.6531 45.8842 42.6531 46.3903C42.6531 46.812 42.3156 47.1495 41.8939 47.1495H40.8818C40.46 45.2095 38.7731 43.7756 36.7488 43.7756C34.7245 43.7756 33.0376 45.2095 32.6158 47.1495H30.8446V32.0514H32.5314V39.6426C32.5314 40.1487 32.8689 40.4861 33.3749 40.4861H42.6531V43.1852C42.6531 43.6912 42.9904 44.0287 43.4964 44.0287C44.0026 44.0287 44.3399 43.6912 44.3399 43.1852V39.4739C44.3399 39.3053 40.0383 32.3046 40.0383 32.3046ZM14.8188 50.6076C13.3849 50.6076 12.2884 49.5111 12.2884 48.0773C12.2884 46.6433 13.3849 45.5468 14.8188 45.5468C16.2527 45.5468 17.3492 46.6433 17.3492 48.0773C17.3492 49.5111 16.2527 50.6076 14.8188 50.6076ZM29.1577 40.4861H14.8188C14.3128 40.4861 13.9753 40.8234 13.9753 41.3296C13.9753 41.8356 14.3128 42.173 14.8188 42.173H29.1577V47.2338H18.9518C18.53 45.2938 16.8431 43.8599 14.8188 43.8599C12.7945 43.8599 11.1076 45.2938 10.6858 47.2338H9.84239C9.33631 47.2338 8.91458 46.812 8.91458 46.306V42.173H11.445C11.951 42.173 12.2884 41.8356 12.2884 41.3296C12.2884 40.8234 11.951 40.4861 11.445 40.4861H8.91458V29.6055C8.91458 29.0993 9.33631 28.6776 9.84239 28.6776H28.1455C28.6515 28.6776 29.0733 29.0993 29.0733 29.6055V40.4861H29.1577ZM34.2184 38.7991V32.0514H36.6645C37.4235 32.0514 38.1827 32.4732 38.6044 33.1479L41.9782 38.7991H34.2184Z" fill="black"/>
<path d="M13.1319 30.3645H11.445C10.9389 30.3645 10.6016 30.7018 10.6016 31.208V32.8949C10.6016 33.4009 10.9389 33.7383 11.445 33.7383C11.9511 33.7383 12.2884 33.4009 12.2884 32.8949V32.0514H13.1319C13.638 32.0514 13.9754 31.714 13.9754 31.208C13.9754 30.7018 13.638 30.3645 13.1319 30.3645ZM21.5666 45.5467H26.6273C27.1333 45.5467 27.4708 45.2094 27.4708 44.7034C27.4708 44.1972 27.1333 43.8599 26.6273 43.8599H21.5666C21.0605 43.8599 20.7231 44.1972 20.7231 44.7034C20.7231 45.2094 21.0605 45.5467 21.5666 45.5467Z" fill="black"/>
<path d="M36.7488 48.9209C37.2146 48.9209 37.5923 48.5432 37.5923 48.0774C37.5923 47.6116 37.2146 47.2339 36.7488 47.2339C36.283 47.2339 35.9054 47.6116 35.9054 48.0774C35.9054 48.5432 36.283 48.9209 36.7488 48.9209Z" fill="black"/>
<path d="M14.8188 48.9209C15.2846 48.9209 15.6623 48.5432 15.6623 48.0774C15.6623 47.6116 15.2846 47.2339 14.8188 47.2339C14.353 47.2339 13.9753 47.6116 13.9753 48.0774C13.9753 48.5432 14.353 48.9209 14.8188 48.9209Z" fill="black"/>
</g>
<defs>
<clipPath id="clip0_0_141">
<rect width="53" height="53" fill="white" transform="translate(0.47998)"/>
</clipPath>
</defs>
</svg>
