<svg width="54" height="53" viewBox="0 0 54 53" fill="none" xmlns="http://www.w3.org/2000/svg">
<g clip-path="url(#clip0_0_163)">
<path d="M26.5752 52.3474C26.7098 52.3953 26.8525 52.4162 26.9952 52.4087C27.1378 52.4014 27.2776 52.3659 27.4064 52.3043C37.5765 47.4243 44.6385 40.954 48.3999 33.0782C49.9006 29.9386 50.6919 26.3704 50.6919 22.7612V12.4648C50.6919 12.1784 50.5782 11.9039 50.3757 11.7014C50.1732 11.4989 49.8987 11.3852 49.6123 11.3852C44.2551 11.3852 39.8956 7.02562 39.8956 1.6685C39.8956 1.38216 39.7819 1.10755 39.5795 0.905084C39.377 0.702613 39.1024 0.588867 38.816 0.588867H15.0641C14.7778 0.588867 14.5032 0.702613 14.3007 0.905084C14.0983 1.10755 13.9845 1.38216 13.9845 1.6685C13.9845 7.02562 9.62498 11.3852 4.26786 11.3852C3.98153 11.3852 3.70692 11.4989 3.50445 11.7014C3.30198 11.9039 3.18823 12.1784 3.18823 12.4648V23.3292C3.18823 26.0563 3.60929 28.6495 4.43737 31.0355C7.95804 41.1667 15.4064 48.3387 26.5752 52.3474ZM5.34749 23.3292V13.4959C11.0371 12.9809 15.5803 8.43778 16.0952 2.74812H37.785C38.2999 8.43778 42.843 12.9809 48.5327 13.4959V22.7612C48.5327 26.0509 47.8126 29.2963 46.4523 32.1465C42.9575 39.4641 36.3739 45.5231 26.8807 50.1612C16.4515 46.309 9.77506 39.8183 6.47678 30.3262C5.72752 28.1691 5.34749 25.8155 5.34749 23.3292Z" fill="black"/>
<path d="M19.0231 36.2167C19.2291 36.2167 19.4307 36.1575 19.604 36.0462L41.5571 22.0109C41.68 21.9361 41.7867 21.8376 41.8709 21.721C41.9551 21.6044 42.0153 21.4721 42.0477 21.3319C42.0801 21.1918 42.0842 21.0467 42.0597 20.9049C42.0352 20.7632 41.9827 20.6278 41.9051 20.5066C41.8276 20.3855 41.7266 20.281 41.6081 20.1994C41.4897 20.1179 41.3561 20.0608 41.2152 20.0316C41.0744 20.0024 40.9292 20.0015 40.7879 20.0292C40.6468 20.0569 40.5126 20.1126 40.3933 20.1928L19.2746 33.6947C18.1054 32.18 15.5953 28.9324 14.8244 27.9801C14.6443 27.7575 14.3831 27.6156 14.0984 27.5856C13.8136 27.5554 13.5285 27.6398 13.3059 27.8199C13.0833 27.9999 12.9413 28.2612 12.9112 28.546C12.8812 28.8307 12.9655 29.1158 13.1456 29.3384C14.1248 30.5476 18.1281 35.7438 18.1691 35.7956C18.3797 36.0709 18.6981 36.2167 19.0231 36.2167Z" fill="black"/>
</g>
<defs>
<clipPath id="clip0_0_163">
<rect width="53" height="53" fill="white" transform="translate(0.439941)"/>
</clipPath>
</defs>
</svg>
