<svg width="54" height="53" viewBox="0 0 54 53" fill="none" xmlns="http://www.w3.org/2000/svg">
<g clip-path="url(#clip0_0_153)">
<path d="M1.89264 27.9536L7.36 31.8624C7.46457 31.9368 7.58279 31.9899 7.7079 32.0187C7.83303 32.0475 7.96258 32.0513 8.08917 32.03C8.21576 32.0087 8.33692 31.9626 8.4457 31.8944C8.55448 31.8263 8.64877 31.7373 8.72318 31.6327L12.6319 26.1653C12.7067 26.0605 12.76 25.9419 12.789 25.8164C12.8178 25.6908 12.8217 25.5608 12.8004 25.4338C12.7791 25.3067 12.733 25.1851 12.6646 25.076C12.5964 24.9668 12.5072 24.872 12.4023 24.7973C12.2974 24.7226 12.1787 24.6692 12.0532 24.6403C11.9277 24.6114 11.7978 24.6074 11.6707 24.6287C11.5437 24.6502 11.4221 24.6963 11.3128 24.7645C11.2036 24.8329 11.109 24.922 11.0342 25.027L8.50331 28.5693C7.78996 25.4475 7.82031 22.2018 8.5919 19.094C9.36349 15.9861 10.8547 13.103 12.9453 10.6775C15.036 8.25189 17.6673 6.35161 20.6274 5.12992C23.5873 3.90824 26.7931 3.39934 29.9859 3.64429C33.1787 3.88925 36.2693 4.88119 39.0083 6.54011C41.7472 8.19903 44.058 10.4785 45.7541 13.1946C47.4502 15.9107 48.4843 18.9874 48.7728 22.1766C49.0612 25.3659 48.5961 28.5782 47.4149 31.5546C47.3673 31.6739 47.3437 31.8014 47.3455 31.9299C47.3472 32.0584 47.3742 32.1852 47.4251 32.3032C47.4759 32.4212 47.5496 32.528 47.6417 32.6175C47.7338 32.707 47.8428 32.7775 47.9621 32.8249C48.0772 32.8703 48.2 32.8936 48.3237 32.8932C48.5195 32.8935 48.7107 32.8349 48.8727 32.7251C49.0347 32.6154 49.1601 32.4595 49.2325 32.2777C50.5247 29.0211 51.0344 25.5066 50.7209 22.0171C50.4072 18.5276 49.2791 15.1603 47.4269 12.1863C45.5748 9.21224 43.0505 6.71441 40.0572 4.89373C37.0637 3.07305 33.6849 1.98036 30.1922 1.70354C26.6996 1.42672 23.1907 1.9735 19.9478 3.29991C16.705 4.62632 13.8188 6.69532 11.5213 9.34048C9.22383 11.9856 7.57926 15.1331 6.71989 18.5297C5.86052 21.9263 5.81032 25.4771 6.57337 28.8966L3.02617 26.3657C2.92252 26.2821 2.80288 26.2205 2.6746 26.1849C2.54632 26.1492 2.41209 26.1401 2.28016 26.1582C2.14825 26.1762 2.0214 26.2211 1.90743 26.29C1.79345 26.3588 1.69476 26.4502 1.6174 26.5586C1.54003 26.6669 1.48564 26.79 1.45754 26.9201C1.42945 27.0503 1.42825 27.1848 1.45403 27.3155C1.4798 27.4461 1.53201 27.5701 1.60743 27.6798C1.68285 27.7896 1.77991 27.8827 1.89264 27.9536Z" fill="black"/>
<path d="M51.48 36.4307C49.5257 34.1196 46.3204 35.1799 44.5908 35.7467C43.4964 36.1081 40.8727 37.2124 38.288 38.3069C38.4439 37.4808 38.338 36.6268 37.9851 35.8639C36.5877 32.6734 33.1383 33.2841 30.6171 33.7336C29.8391 33.9026 29.0478 34.0022 28.2523 34.0317C26.9046 34.0165 25.5744 33.7256 24.3436 33.1766C22.745 32.4887 21.0164 32.1554 19.2769 32.1994C15.9459 32.2611 12.6619 32.9956 9.6222 34.359L9.07498 34.5837C4.53595 36.3916 2.58157 36.802 2.58157 36.802C2.39975 36.8382 2.23198 36.9255 2.09788 37.0535C1.96378 37.1816 1.86888 37.3451 1.82425 37.5251C1.79005 37.6667 1.02296 40.9452 3.1972 45.5527C5.06363 49.4615 7.24764 50.9614 8.74763 51.5038C8.90329 51.5595 9.07056 51.5749 9.23377 51.5484C9.39699 51.5219 9.55081 51.4545 9.68084 51.3523C9.68084 51.3523 10.9072 50.3751 11.8453 49.8279C12.4658 49.4517 13.9756 49.2123 17.6694 50.2383C21.0868 51.1477 24.5997 51.6512 28.1351 51.7382C29.5118 51.7832 30.8862 51.5948 32.2002 51.1813C36.0552 49.7155 45.4362 44.8296 49.125 42.8263C51.0794 41.7612 52.1445 40.613 52.3888 39.3133C52.4683 38.7953 52.4277 38.266 52.2701 37.7662C52.1126 37.2663 51.8423 36.8094 51.48 36.4307ZM50.4638 38.9567C50.3416 39.6163 49.5305 40.3833 48.1869 41.1163C45.0892 42.8117 35.3467 47.9175 31.5112 49.3589C28.8191 50.3653 22.0423 49.4272 18.1922 48.3816C16.6539 47.8985 15.0588 47.6193 13.4479 47.551C12.5342 47.5068 11.626 47.7166 10.8241 48.1569C10.1646 48.5575 9.41211 49.1048 8.93817 49.4566C7.4724 48.7237 6.07991 47.0625 4.96102 44.7074C3.99497 42.8012 3.54359 40.6757 3.65159 38.5413C5.74028 37.9315 7.79385 37.2073 9.80299 36.3721L10.3649 36.1424C13.1805 34.8704 16.2267 34.1887 19.3159 34.1392C20.8086 34.1004 22.2909 34.3959 23.6547 35.0039C25.094 35.6351 26.6465 35.9676 28.2181 35.9811C29.1396 35.9526 30.0567 35.8431 30.9591 35.6538C33.6512 35.1651 35.4688 34.9844 36.1919 36.6309C36.3153 36.8843 36.3856 37.1603 36.3981 37.4418C36.4107 37.7232 36.3655 38.0044 36.2653 38.2678C35.9916 38.942 35.2881 39.5577 34.1839 40.056C33.2066 40.4664 32.4738 40.784 32.1513 40.9111C30.0796 41.7221 28.2963 41.4388 26.5716 41.1651L25.6236 41.0186C25.3644 40.9836 25.102 41.0529 24.894 41.2115C24.686 41.37 24.5495 41.6046 24.5145 41.8638C24.4796 42.123 24.549 42.3854 24.7075 42.5934C24.866 42.8014 25.1006 42.9379 25.3598 42.9729C25.6579 43.012 25.9608 43.0609 26.2637 43.1097C28.1546 43.4078 30.2946 43.7449 32.8646 42.7433C33.1627 42.6261 33.7587 42.3769 34.5503 42.0348C34.6968 41.9762 34.8385 41.9176 34.9754 41.8541L36.2359 41.3165C39.4167 39.9485 43.7749 38.0723 45.2065 37.6032C47.4785 36.8557 49.0712 36.626 49.985 37.6912C50.5761 38.385 50.4931 38.8149 50.4638 38.9567ZM27.4998 12.255V13.5498C27.161 13.627 26.8329 13.7451 26.5227 13.9015C26.0249 14.1522 25.6043 14.5331 25.3058 15.0037C25.0073 15.4744 24.8419 16.0171 24.8272 16.5742C24.7589 18.7191 26.6888 19.4374 28.096 19.9602C29.7376 20.5709 30.236 20.8836 30.1626 21.6653C30.1479 21.9314 30.0545 22.187 29.8946 22.4001C29.7345 22.6132 29.515 22.774 29.2637 22.8624C28.7934 23.0418 28.2887 23.113 27.7871 23.0708C27.2856 23.0285 26.7999 22.8738 26.3664 22.6181C26.2652 22.5385 26.1495 22.4797 26.0257 22.4448C25.9019 22.41 25.7724 22.3999 25.6447 22.415C25.517 22.4303 25.3935 22.4705 25.2813 22.5334C25.1692 22.5963 25.0705 22.6807 24.9909 22.7818C24.9114 22.8828 24.8525 22.9986 24.8177 23.1224C24.7828 23.2462 24.7728 23.3756 24.7879 23.5033C24.8031 23.6311 24.8433 23.7546 24.9062 23.8667C24.9692 23.979 25.0535 24.0776 25.1546 24.1571C25.8427 24.6511 26.6548 24.9438 27.4998 25.0024V26.1702C27.4998 26.4294 27.6028 26.6779 27.786 26.8611C27.9693 27.0444 28.2179 27.1474 28.477 27.1474C28.7362 27.1474 28.9848 27.0444 29.168 26.8611C29.3513 26.6779 29.4542 26.4294 29.4542 26.1702V24.8559C29.6586 24.804 29.8594 24.7387 30.0552 24.6604C30.6289 24.4339 31.1277 24.051 31.4947 23.5553C31.8618 23.0595 32.0825 22.4708 32.1317 21.8559C32.3663 19.452 30.2214 18.6556 28.8044 18.1279C27.2848 17.5661 26.7817 17.2729 26.8012 16.6377C26.8063 16.4238 26.8711 16.2156 26.9886 16.0369C27.1061 15.8581 27.2714 15.7158 27.4657 15.6263C27.9164 15.4308 28.4087 15.3504 28.8982 15.3921C29.3877 15.4339 29.8592 15.5967 30.2702 15.8657C30.379 15.9382 30.5012 15.9882 30.6296 16.0126C30.7579 16.037 30.89 16.0354 31.0177 16.008C31.1456 15.9804 31.2665 15.9275 31.3735 15.8525C31.4805 15.7773 31.5714 15.6816 31.6407 15.5707C31.71 15.46 31.7563 15.3364 31.777 15.2073C31.7977 15.0781 31.7923 14.9463 31.7611 14.8193C31.7298 14.6924 31.6736 14.5731 31.5953 14.4682C31.5172 14.3635 31.4188 14.2754 31.306 14.2094C30.7401 13.8562 30.1113 13.6157 29.4542 13.501V12.255C29.4542 11.9959 29.3513 11.7473 29.168 11.5641C28.9848 11.3808 28.7362 11.2778 28.477 11.2778C28.2179 11.2778 27.9693 11.3808 27.786 11.5641C27.6028 11.7473 27.4998 11.9959 27.4998 12.255Z" fill="black"/>
<path d="M16.751 19.2126C16.751 21.5319 17.4387 23.799 18.7271 25.7273C20.0157 27.6557 21.847 29.1587 23.9897 30.0462C26.1324 30.9337 28.4902 31.166 30.7649 30.7135C33.0396 30.2611 35.1289 29.1442 36.7689 27.5043C38.4089 25.8644 39.5257 23.7749 39.9781 21.5003C40.4306 19.2256 40.1984 16.8679 39.3109 14.7252C38.4233 12.5825 36.9203 10.7511 34.992 9.46256C33.0636 8.17406 30.7964 7.48633 28.4772 7.48633C25.3672 7.48633 22.3846 8.72177 20.1855 10.9209C17.9864 13.12 16.751 16.1025 16.751 19.2126ZM38.249 19.2126C38.249 21.1453 37.676 23.0345 36.6022 24.6416C35.5285 26.2485 34.0023 27.501 32.2167 28.2406C30.4311 28.9803 28.4663 29.1737 26.5708 28.7967C24.6752 28.4196 22.9341 27.489 21.5674 26.1223C20.2009 24.7557 19.2702 23.0146 18.8931 21.119C18.5161 19.2234 18.7095 17.2586 19.4492 15.473C20.1888 13.6874 21.4413 12.1614 23.0482 11.0876C24.6552 10.0138 26.5445 9.4407 28.4772 9.4407C31.0688 9.4407 33.5544 10.4702 35.3869 12.3029C37.2196 14.1354 38.249 16.6209 38.249 19.2126Z" fill="black"/>
</g>
<defs>
<clipPath id="clip0_0_153">
<rect width="53" height="53" fill="white" transform="translate(0.469971)"/>
</clipPath>
</defs>
</svg>
